/* XPM */
static char * counter_xpm[] = {
"120 48 5 1",
" 	c #DC00FF",
".	c #283030",
"+	c #F8F8F8",
"@	c #606060",
"#	c #D0D0C8",
"                                                                                                                        ",
"                                                                                                                        ",
"                                                                                                                        ",
"                                                                                                                        ",
"                          ......................................................................................        ",
"                          ......................................................................................        ",
"                        ..++++++++++++++++++++++++++++++++++++++++++++++++++++++++++++++++++++++++++++++++++++++..      ",
"                        ..++++++++++++++++++++++++++++++++++++++++++++++++++++++++++++++++++++++++++++++++++++++..      ",
"                      ..++++..................................................................................++++..    ",
"                      ..++++..................................................................................++++..    ",
"                      ..++......................................................................................++..    ",
"                      ..++......................................................................................++..    ",
"                      ..++....++++++++++++++++++++++++++++++++++++++++++++++++++++++++++++++++++++++++++++++++..++..    ",
"                      ..++....++++++++++++++++++++++++++++++++++++++++++++++++++++++++++++++++++++++++++++++++..++..    ",
"                      ..++..++++++++++++++++++++++++++++++++++++++++++++++++++++++++++++++++++++++++++++++++++..++..    ",
"                      ..++..++++++++++++++++++++++++++++++++++++++++++++++++++++++++++++++++++++++++++++++++++..++..    ",
"                      ..++..++++++++++++++++++++++++++++++++++++++++++++++++++++++++++++++++++++++++++++++++++..++..    ",
"                      ..++..++++++++++++++++++++++++++++++++++++++++++++++++++++++++++++++++++++++++++++++++++..++..    ",
"                      ..++..++++++++++++++++++++++++++++++++++++++++++++++++++++++++++++++++++++++++++++++++++..++..    ",
"                      ..++..++++++++++++++++++++++++++++++++++++++++++++++++++++++++++++++++++++++++++++++++++..++..    ",
"                      ..++..++++++++@#++@#++++++++++++++++++++++++++++++++++++++++++++++++++++++++++++++++++++..++..    ",
"                      ..++..++++++++@@#@@#++++++++++++++++++++++++++++++++++++++++++++++++++++++++++++++++++++..++..    ",
"                      ..++..++++++++@@#@@#++++++++++++++++++++++++@@#+++++++++++++++++++++++++++++++++++++++++..++..    ",
"                      ..++..++++++++@#@#@#+@@@#+@#++@#+@@@#+@@@@#+@@#+++++++++++++++++++++++++++++++++++++++++..++..    ",
"                      ..++..++++++++@#@#@#@###@#@#++@#@###@#@####+###+++++++++++++++++++++++++++++++++++++++++..++..    ",
"                      ..++..++++++++@###@#@#++@##@#@##@@@@@##@@#++++++++++++++++++++++++++++++++++++++++++++++..++..    ",
"                      ..++..++++++++@#++@#@#++@#+@#@#+@####++##@#+@@#+++++++++++++++++++++++++++++++++++++++++..++..    ",
"                      ..++..++++++++@#++@##@@@##+#@##+#@@@@#@@@@#+@@#+++++++++++++++++++++++++++++++++++++++++..++..    ",
"                      ..++..++++++++##++##+####+++##+++####+#####+###+++++++++++++++++++++++++++++++++++++++++..++..    ",
"                      ..++..++++++++++++++++++++++++++++++++++++++++++++++++++++++++++++++++++++++++++++++++++..++..    ",
"                      ..++..++++++++++++++++++++++++++++++++++++++++++++++++++++++++++++++++++++++++++++++++++..++..    ",
"                      ..++..++++++++++++++++++++++++++++++++++++++++++++++++++++++++++++++++++++++++++++++++++..++..    ",
"                      ..++..++++++++++++++++++++++++++++++++++++++++++++++++++++++++++++++++++++++++++++++++++..++..    ",
"                      ..++..++++++++++++++++++++++++++++++++++++++++++++++++++++++++++++++++++++++++++++++++++..++..    ",
"                      ..++....++++++++++++++++++++++++++++++++++++++++++++++++++++++++++++++++++++++++++++++....++..    ",
"                      ..++....++++++++++++++++++++++++++++++++++++++++++++++++++++++++++++++++++++++++++++++....++..    ",
"                      ..++++..................................................................................++++..    ",
"                      ..++++..................................................................................++++..    ",
"                      ....++++++++++++++++++++++++++++++++++++++++++++++++++++++++++++++++++++++++++++++++++++++....    ",
"                      ....++++++++++++++++++++++++++++++++++++++++++++++++++++++++++++++++++++++++++++++++++++++....    ",
"                        ..........................................................................................      ",
"                        ..........................................................................................      ",
"                          ......................................................................................        ",
"                          ......................................................................................        ",
"                                                                                                                        ",
"                                                                                                                        ",
"                                                                                                                        ",
"                                                                                                                        "};
