/* XPM */
static char * locked_xpm[] = {
"48 48 5 1",
" 	c #DC00FF",
".	c #383818",
"+	c #C8A860",
"@	c #787040",
"#	c #000000",
"                                                ",
"                                                ",
"                                                ",
"                  .........                     ",
"                  .........                     ",
"                  .........                     ",
"            .........++++++......               ",
"            .........++++++......               ",
"            .........++++++......               ",
"         .........++++++++++++@@@...            ",
"         .........++++++++++++@@@...            ",
"         .........++++++++++++@@@...            ",
"      ...@@@+++...+++++++++@@@@@@...###         ",
"      ...@@@+++...+++++++++@@@@@@...###         ",
"      ...@@@+++...+++++++++@@@@@@...###         ",
"      ......++++++@@@+++@@@+++...###@@@###      ",
"      ......++++++@@@+++@@@+++...###@@@###      ",
"      ......++++++@@@+++@@@+++...###@@@###      ",
"   ...@@@###@@@++++++......######......###      ",
"   ...@@@###@@@++++++......######......###      ",
"   ...@@@###@@@++++++......######......###      ",
"   ###...###...@@@+++@@@+++@@@...@@@@@@...###   ",
"   ###...###...@@@+++@@@+++@@@...@@@@@@...###   ",
"   ###...###...@@@+++@@@+++@@@...@@@@@@...###   ",
"   ###@@@+++......@@@+++@@@###@@@@@@@@@######   ",
"   ###@@@+++......@@@+++@@@###@@@@@@@@@######   ",
"   ###@@@+++......@@@+++@@@###@@@@@@@@@######   ",
"   ###...@@@+++...+++@@@...###...@@@###...###   ",
"   ###...@@@+++...+++@@@...###...@@@###...###   ",
"   ###...@@@+++...+++@@@...###...@@@###...###   ",
"   ###.........###......@@@@@@###.........###   ",
"   ###.........###......@@@@@@###.........###   ",
"   ###.........###......@@@@@@###.........###   ",
"   ###......######...@@@......######......###   ",
"   ###......######...@@@......######......###   ",
"   ###......######...@@@......######......###   ",
"      ###...######............############      ",
"      ###...######............############      ",
"      ###...######............############      ",
"         ############......#########            ",
"         ############......#########            ",
"         ############......#########            ",
"              ##################                ",
"                  ############                  ",
"                  ############                  ",
"                                                ",
"                                                ",
"                                                "};
