/* XPM */
static char * player_d_xpm[] = {
"48 48 14 1",
" 	c #DC00FF",
".	c #3A4A7B",
"+	c #F8F8F8",
"@	c #DEE6EF",
"#	c #000000",
"$	c #73CE73",
"%	c #4A9452",
"&	c #7B4242",
"*	c #FFC594",
"=	c #FFD6B5",
"-	c #10213A",
";	c #DE9473",
">	c #FF635A",
",	c #C54242",
"                             ..                 ",
"                             ..                 ",
"                          ...++..               ",
"                          ...++..               ",
"                          ...++..               ",
"                 .........+++++....             ",
"                 .........+++++....             ",
"               ..+++++@@@@@@@@@@@@@...          ",
"               ..+++++@@@@@@@@@@@@@...          ",
"             ..@@+++++++++@@@@@@@..             ",
"             ..@@+++++++++@@@@@@@..             ",
"             ##$$@@$$$$$$$$$$@@$$##             ",
"             ##$$@@$$$$$$$$$$@@$$##             ",
"             ##$$@@$$$$$$$$$$@@$$##             ",
"          ###%%%%@@+++$$$$+++@@%%%%###          ",
"          ###%%%%@@+++$$$$+++@@%%%%###          ",
"          ###..%%$$++++++++++$$%%..###          ",
"          ###..%%$$++++++++++$$%%..###          ",
"        &&***##==================##***&&        ",
"        &&***##==================##***&&        ",
"        &&***##==================##***&&        ",
"        &&***&&====---====---====&&***&&        ",
"        &&***&&====---====---====&&***&&        ",
"        &&***&&====---====---====&&***&&        ",
"          &&&;;;;**---****---**;;;;&&&          ",
"          &&&;;;;**---****---**;;;;&&&          ",
"             &&;;;;;;;****;;;;;;;&&             ",
"             &&;;;;;;;****;;;;;;;&&             ",
"             ####&&;;;;;;;;;;&&####             ",
"             ####&&;;;;;;;;;;&&####             ",
"             ####&&;;;;;;;;;;&&####             ",
"          ###**----##########----**###          ",
"          ###**----##########----**###          ",
"        &&>>>==##-----,,,,-----##==>>>&&        ",
"        &&>>>==##-----,,,,-----##==>>>&&        ",
"        &&,,,,,&&,,----------,,&&,,,,,--        ",
"        &&,,,,,&&,,----------,,&&,,,,,--        ",
"        &&,,,,,&&,,----------,,&&,,,,,--        ",
"          #######&&,,,----,,,&&####---          ",
"          #######&&,,,----,,,&&####---          ",
"             ######&&&&&&&&&&######             ",
"             ######&&&&&&&&&&######             ",
"             ##&&##############&&##             ",
"             ##&&##############&&##             ",
"             ##,,$$&&&####&&&$$,,##             ",
"             ##,,$$&&&####&&&$$,,##             ",
"               #######    #######               ",
"               #######    #######               "};
