/* XPM */
static char * unlocked_xpm[] = {
"48 48 8 1",
" 	c #DC00FF",
".	c #707888",
"+	c #404048",
"@	c #A8A858",
"#	c #E8E8A0",
"$	c #101018",
"%	c #C8C868",
"&	c #788048",
"                                                ",
"                                                ",
"                                                ",
"                                                ",
"                                                ",
"                                                ",
"                                                ",
"                                                ",
"                                                ",
"                                                ",
"                                                ",
"                                                ",
"                                                ",
"                                                ",
"                                                ",
"                                                ",
"                ..++++++++++++..                ",
"                ..++++++++++++..                ",
"            ..++++++++++++++++++++..            ",
"            ..++++++++++++++++++++..            ",
"          ..++++@@##@@++++++++++++++..          ",
"          ..++++@@##@@++++++++++++++..          ",
"        ..++++++######++$$$$$$++++++++..        ",
"        ..++++++######++$$$$$$++++++++..        ",
"        ++++$$++%%%%%%##++$$$$$$$$++++++        ",
"        ++++$$++%%%%%%##++$$$$$$$$++++++        ",
"        ++$$$$++%%&&++%%##++$$$$$$$$$$++        ",
"        ++$$$$++%%&&++%%##++$$$$$$$$$$++        ",
"        $$$$$$++%%&&$$++%%##++$$$$$$$$$$        ",
"        $$$$$$++%%&&$$++%%##++$$$$$$$$$$        ",
"        $$$$$$&&%%&&$$$$++%%##&&++++$$$$        ",
"        $$$$$$&&%%&&$$$$++%%##&&++++$$$$        ",
"        ++$$++%%%%++$$$$$$++%%++####&&$$        ",
"        ++$$++%%%%++$$$$$$++%%++####&&$$        ",
"        ..$$++%%&&++@@$$$$$$++++##%%@@$$        ",
"        ..$$++%%&&++@@$$$$$$++++##%%@@$$        ",
"        ..++++&&&&++&&@@$$$$++&&%%&&++..        ",
"        ..++++&&&&++&&@@$$$$++&&%%&&++..        ",
"          ..++&&&&++$$&&@@$$++%%@@&&++..        ",
"          ..++&&&&++$$&&@@$$++%%@@&&++..        ",
"            ..$$&&$$$$$$&&@@$$@@@@++..          ",
"            ..$$&&$$$$$$&&@@$$@@@@++..          ",
"              ..$$$$$$$$$$$$$$$$$$..            ",
"              ..$$$$$$$$$$$$$$$$$$..            ",
"                                                ",
"                                                ",
"                                                ",
"                                                "};
