/* XPM */
static char * unlocked_xpm[] = {
"48 48 8 1",
" 	c #DC00FF",
".	c #50856D",
"+	c #294538",
"@	c #A8A855",
"#	c #E8E890",
"$	c #0C2419",
"%	c #C7C76F",
"&	c #788330",
"                                                ",
"                                                ",
"                                                ",
"                                                ",
"                                                ",
"                                                ",
"                                                ",
"                                                ",
"                                                ",
"                                                ",
"                                                ",
"                                                ",
"                                                ",
"                                                ",
"                                                ",
"                                                ",
"                ..++++++++++++..                ",
"                ..++++++++++++..                ",
"            ..++++++++++++++++++++..            ",
"            ..++++++++++++++++++++..            ",
"          ..++++@@##@@++++++++++++++..          ",
"          ..++++@@##@@++++++++++++++..          ",
"        ..++++++######++$$$$$$++++++++..        ",
"        ..++++++######++$$$$$$++++++++..        ",
"        ++++$$++%%%%%%##++$$$$$$$$++++++        ",
"        ++++$$++%%%%%%##++$$$$$$$$++++++        ",
"        ++$$$$++%%&&++%%##++$$$$$$$$$$++        ",
"        ++$$$$++%%&&++%%##++$$$$$$$$$$++        ",
"        $$$$$$++%%&&$$++%%##++$$$$$$$$$$        ",
"        $$$$$$++%%&&$$++%%##++$$$$$$$$$$        ",
"        $$$$$$&&%%&&$$$$++%%##&&++++$$$$        ",
"        $$$$$$&&%%&&$$$$++%%##&&++++$$$$        ",
"        ++$$++%%%%++$$$$$$++%%++####&&$$        ",
"        ++$$++%%%%++$$$$$$++%%++####&&$$        ",
"        ..$$++%%&&++@@$$$$$$++++##%%@@$$        ",
"        ..$$++%%&&++@@$$$$$$++++##%%@@$$        ",
"        ..++++&&&&++&&@@$$$$++&&%%&&++..        ",
"        ..++++&&&&++&&@@$$$$++&&%%&&++..        ",
"          ..++&&&&++$$&&@@$$++%%@@&&++..        ",
"          ..++&&&&++$$&&@@$$++%%@@&&++..        ",
"            ..$$&&$$$$$$&&@@$$@@@@++..          ",
"            ..$$&&$$$$$$&&@@$$@@@@++..          ",
"              ..$$$$$$$$$$$$$$$$$$..            ",
"              ..$$$$$$$$$$$$$$$$$$..            ",
"                                                ",
"                                                ",
"                                                ",
"                                                "};
