/* XPM */
static char * unlocking_1_xpm[] = {
"48 48 6 1",
" 	c #DC00FF",
".	c #383818",
"+	c #C8A860",
"@	c #787040",
"#	c #000000",
"$	c #404048",
"                                                ",
"                                                ",
"                                                ",
"                                                ",
"                                                ",
"                                                ",
"            ......                              ",
"            ......                              ",
"            ......                              ",
"         ...+++@@@...         ......            ",
"         ...+++@@@...         ......            ",
"         ...+++@@@...         ......            ",
"      ...+++++++++...      ......@@@###         ",
"      ...+++++++++...      ......@@@###         ",
"      ...+++++++++...      ......@@@###         ",
"      ......+++@@@...   ###@@@++++++@@@###      ",
"      ......+++@@@...$$$###@@@++++++@@@###      ",
"      ......+++@@@...$$$###@@@++++++@@@###      ",
"   ...@@@###@@@...############++++++...###      ",
"   ...@@@###@@@...############++++++...###      ",
"   ...@@@###@@@...############++++++...###      ",
"...@@@@@@###...######@@@###.........@@@...###   ",
"...@@@@@@###...######@@@###.........@@@...###   ",
"...@@@@@@###...######@@@###.........@@@...###   ",
"...@@@...+++...###@@@@@@@@@###@@@+++@@@###@@@###",
"...@@@...+++...###@@@@@@@@@###@@@+++@@@###@@@###",
"...@@@...+++...###@@@@@@@@@###@@@+++@@@###@@@###",
"...###...@@@+++###@@@@@@...###...@@@###...@@@###",
"...###...@@@+++###@@@@@@...###...@@@###...@@@###",
"...###...@@@+++###@@@@@@...###...@@@###...@@@###",
"   ###@@@@@@...######...@@@+++###......@@@###   ",
"   ###@@@@@@...######...@@@+++###......@@@###   ",
"   ###@@@@@@...######...@@@+++###......@@@###   ",
"   ###......#########@@@+++@@@######......###   ",
"   ###......#########@@@+++@@@######......###   ",
"   ###......#########@@@+++@@@######......###   ",
"      ############......@@@...############      ",
"      ############......@@@...############      ",
"      ############......@@@...############      ",
"            #########......######               ",
"            #########......######               ",
"            #########......######               ",
"                  #########                     ",
"                  #########                     ",
"                  #########                     ",
"                                                ",
"                                                ",
"                                                "};
