/* XPM */
static char * unlocking_3_xpm[] = {
"48 48 12 1",
" 	c #DC00FF",
".	c #787040",
"+	c #383818",
"@	c #000000",
"#	c #404048",
"$	c #C8A860",
"%	c #A8A858",
"&	c #101018",
"*	c #707888",
"=	c #788048",
"-	c #C8C868",
";	c #E8E8A0",
"                                                ",
"                                                ",
"                                                ",
"      ...                                       ",
"      ...                                       ",
"      ...                                       ",
"                     ...+++                     ",
"                     ...+++                     ",
"                     ...+++                     ",
"                     ++++++            ...      ",
"                     ++++++            ...      ",
"                     ++++++            ...      ",
"...+++                        ++++++            ",
"...+++                        ++++++            ",
"...+++                        ++++++            ",
"++++++      ++++++         ++++++...@@@         ",
"++++++      ++++++#########++++++...@@@         ",
"++++++      ++++++#########++++++...@@@         ",
"         +++$$$...+++######+++$$$$$$...@@@      ",
"         +++$$$...+++######+++$$$$$$...@@@      ",
"         +++$$$...+++%#####+++$$$$$$...@@@      ",
"      +++$$$$$$...+++++++++###+++++++++         ",
"      +++$$$$$$...+++++++++&&&+++++++++*        ",
"      +++$$$$$$...+++++++++&&&+++++++++*        ",
"      ++++++...++++++...@@@+++&&&&#####...+++   ",
"      ++++++...++++++...@@@+++&&&&#####...+++   ",
"      ++++++...++++++...@@@+++&&&&&&&&#...+++   ",
"        #+++++++++...$$$...+++&&&&&&&&#@@@@@@   ",
"        &+++++++++...$$$...+++&&&&&&&&&@@@@@@   ",
"        &+++++++++...$$$...+++&&&&&&&&&@@@@@@   ",
"   +++  &&&&&&=@@@$$$$$$@@@+++==####&&&&        ",
"   +++  &&&&&&=@@@$$$$$$@@@+++==####&&&&        ",
"   +++  ##&&##-@@@$$$$$$@@@+++##;;;;==&&        ",
"+++...+++#&&##----@@@@@@+++#--##;;;;++++++      ",
"+++...+++*&&##--==@@@@@@+++&####;;--++++++      ",
"+++...+++*&&##--==@@@@@@+++&####;;--++++++      ",
"   @@@@@@*##++++++##==%%&&&...==-+++$$$+++      ",
"   @@@@@@*##++++++##==%%&&&...==-+++$$$+++      ",
"   @@@@@@ **++++++##&&==%%&...--%+++$$$+++      ",
"         +++......+++&==%%&&##--%%==+++*        ",
"         +++......+++&&&==%%&&%%%%##+++         ",
"         +++......+++&&&==%%&&%%%%##+++         ",
"            ++++++&&&&&&&&&&&&&&&&**            ",
"            ++++++&&&&&&&&&&&&&&&&**            ",
"            ++++++                              ",
"                                                ",
"                                                ",
"                                                "};
