/* XPM */
static char * unlocking_2_xpm[] = {
"48 48 12 1",
" 	c #DC00FF",
".	c #383818",
"+	c #000000",
"@	c #C8A860",
"#	c #787040",
"$	c #404048",
"%	c #707888",
"&	c #A8A858",
"*	c #E8E8A0",
"=	c #101018",
"-	c #C8C868",
";	c #788048",
"      ......      ......                  +++   ",
"      ......      ......                  +++   ",
"      ......      ......                  +++   ",
"   ...@@@###...   ......                        ",
"   ...@@@###...   ......                        ",
"   ...@@@###...   ......                        ",
"...@@@@@@###...                     ......      ",
"...@@@@@@###...                     ......      ",
"...@@@@@@###...                     ......      ",
"......######...   ......         ......###+++   ",
"......######...   ......         ......###+++   ",
"......######...   ......         ......###+++   ",
"   .........   ......###+++      ...@@@@@@###+++",
"   .........   ......###+++      ...@@@@@@###+++",
"   .........   ......###+++      ...@@@@@@###+++",
"               ...###@@@###      ...@@@@@@...+++",
"               ...###@@@###$$$%% ...@@@@@@...+++",
"               ...###@@@###$$$%% ...@@@@@@...+++",
"      ...   %%$+++@@@@@@+++$$$$$$$%%...+++      ",
"      ...   %%$+++@@@@@@+++$$$$$$$%%...+++      ",
"      ... %%$$$+++@@@@@@+++$$$$$$$$$...+++      ",
"   ...###...$$$$&&++++++$$$$$$$$$$$$%%    ###...",
"   ...###...$$$$**++++++======$$$$$$$$%%  ###...",
"   ...###...$$$$**++++++======$$$$$$$$%%  ###...",
"   .........==$$------**$$========$$$$$$  ......",
"   .........==$$------**$$========$$$$$$  ......",
"   .........==$$--;;$$--**$$==========$$  ......",
"        $$====$$--;;$$--**$$=====...==$+++      ",
"        ======$$--;;==$$--**$$===...===+++      ",
"        ======$$--;;==$$--**$$===...===+++      ",
"        =......;--;;====$$-++++++###...=        ",
"        =......;--;;====$$-++++++###...=        ",
"        $......---$$======$++++++###...=        ",
"      ...######+++$$====+++...+++.........      ",
"      ...######+++$$&&==+++...+++.........      ",
"      ...######+++$$&&==+++...+++.........      ",
"      ...+++###+++$$;+++...######...###...      ",
"      ...+++###+++$$;+++...######...###...      ",
"      ...+++###+++$$=+++...######...###...      ",
"         ++++++...++++++#########...+++   ...   ",
"         ++++++...++++++#########...+++   ...   ",
"         ++++++...++++++#########...+++   ...   ",
"               ++++++   ++++++++++++            ",
"               ++++++   ++++++++++++            ",
"               ++++++   ++++++++++++            ",
"                                                ",
"                                                ",
"                                                "};
