/* XPM */
static char * player_d1_xpm[] = {
"48 48 15 1",
" 	c #DC00FF",
".	c #384040",
"+	c #000000",
"@	c #486060",
"#	c #F8B020",
"$	c #B87020",
"%	c #784040",
"&	c #D8A078",
"*	c #282838",
"=	c #9890B0",
"-	c #E8E8F8",
";	c #F8D0B8",
">	c #C03838",
",	c #B8B0D0",
"'	c #F06848",
"                 ..............                 ",
"                 ..............                 ",
"             ++..@@##########@@..++             ",
"             ++..@@##########@@..++             ",
"           ++..@@$$##########$$@@..++           ",
"           ++..@@$$##########$$@@..++           ",
"           ++@@@@##############@@@@++           ",
"           ++@@@@##############@@@@++           ",
"         ++..@@@@##############@@@@..++         ",
"         ++..@@@@##############@@@@..++         ",
"         ++..@@@@##############@@@@..++         ",
"         ++..@@@@##############@@@@..++         ",
"         ++....++++############@@....++         ",
"         ++....++++############@@....++         ",
"         ++..++..@@++++######$$......++         ",
"         ++..++..@@++++######$$......++         ",
"       %%++..++@@@@@@@@++..$$$$......++%%       ",
"       %%++..++@@@@@@@@++..$$$$......++%%       ",
"       ++&&++@@@@++@@++++....$$....++&&++       ",
"       ++&&++@@@@++@@++++....$$....++&&++       ",
"       ++&&++@@++++++++$$$$$$$$..**%%&&++       ",
"       ++&&++@@++++++++$$$$$$$$..**%%&&++       ",
"         ++%%++&&==..%%%%%%..==**&&%%++         ",
"         ++%%++&&==..%%%%%%..==**&&%%++         ",
"           ++&&&&--++&&&&&&++--&&&&++           ",
"           ++&&&&--++&&&&&&++--&&&&++           ",
"             %%&&;;;;;;;;;;;;;;&&%%             ",
"             %%&&;;;;;;;;;;;;;;&&%%             ",
"           ++>>%%&&;;;;&&;;;;&&%%@@             ",
"           ++>>%%&&;;;;&&;;;;&&%%@@             ",
"         ++%%>>%%++%%&&&&&&%%%%@@%%             ",
"         ++%%>>%%++%%&&&&&&%%%%@@%%             ",
"       ++&&%%%%..++,,@@@@@@,,%%''''++           ",
"       ++&&%%%%..++,,@@@@@@,,%%''''++           ",
"       ++&&&&++++>>++--@@-->>%%''>>++           ",
"       ++&&&&++++>>++--@@-->>%%''>>++           ",
"         ++++  ++%%>>++++%%>>%%++;;;;++         ",
"         ++++  ++%%>>++++%%>>%%++;;;;++         ",
"             ++..++++,,,,,,++..++;;;;++         ",
"             ++..++++,,,,,,++..++;;;;++         ",
"             ++@@@@@@@@++....++  ++++           ",
"             ++@@@@@@@@++....++  ++++           ",
"             ++..@@@@++++++++                   ",
"             ++..@@@@++++++++                   ",
"               ++,,,,..                         ",
"               ++,,,,..                         ",
"                 ++++                           ",
"                 ++++                           "};
