/* XPM */
static char * player_u2_xpm[] = {
"48 48 14 1",
" 	c #DC00FF",
".	c #384040",
"+	c #B87020",
"@	c #000000",
"#	c #486060",
"$	c #F8B020",
"%	c #282838",
"&	c #D8A078",
"*	c #784040",
"=	c #B8B0D0",
"-	c #9088A8",
";	c #F06848",
">	c #E8E8F8",
",	c #F8D0B8",
"                 ..++++++++++..                 ",
"                 ..++++++++++..                 ",
"             @@..##$$$$$$$$$$##..@@             ",
"             @@..##$$$$$$$$$$##..@@             ",
"           @@..####$$$$$$$$$$####..@@           ",
"           @@..####$$$$$$$$$$####..@@           ",
"           @@####$$$$$$$$$$$$$$####@@           ",
"           @@####$$$$$$$$$$$$$$####@@           ",
"         @@..####$$$$$$$$$$$$$$####..@@         ",
"         @@..####$$$$$$$$$$$$$$####..@@         ",
"         @@..####$$$$$$$$$$$$$$####..@@         ",
"         @@..####$$$$$$$$$$$$$$####..@@         ",
"         @@....##$$$$$$$$$$$$$$##....@@         ",
"         @@....##$$$$$$$$$$$$$$##....@@         ",
"         @@......++$$$$$$$$$$++......@@         ",
"         @@......++$$$$$$$$$$++......@@         ",
"         @@%%....++++++++++++++....%%@@         ",
"         @@%%....++++++++++++++....%%@@         ",
"       @@&&@@%%....++++++++++....%%@@&&@@       ",
"       @@&&@@%%....++++++++++....%%@@&&@@       ",
"       @@&&@@##%%%%..........%%%%##@@&&@@       ",
"       @@&&@@##%%%%..........%%%%##@@&&@@       ",
"         @@**@@##################@@**@@         ",
"         @@**@@##################@@**@@         ",
"           @@@@..##############..@@@@           ",
"           @@@@..##############..@@@@           ",
"           @@**@@@@@@@@@@@@@@@@@@@@             ",
"           @@**@@@@@@@@@@@@@@@@@@@@             ",
"         @@**@@@@========--@@..@@               ",
"         @@**@@@@========--@@..@@               ",
"       @@&&**@@....====--....%%;;@@             ",
"       @@&&**@@....====--....%%;;@@             ",
"       @@&&&&..@@**##@@..>>--**;;**@@           ",
"       @@&&&&..@@**##@@..>>--**;;**@@           ",
"         @@@@@@@@@@..>>>>====@@;;;;@@           ",
"         @@@@@@@@@@..>>>>====@@;;;;@@           ",
"             @@@@--========##@@**,,,,@@         ",
"             @@@@--========##@@**,,,,@@         ",
"             ..@@--====####@@@@@@,,,,@@         ",
"             ..@@--====####@@@@@@,,,,@@         ",
"             @@..@@######@@@@##@@@@@@           ",
"             @@..@@######@@@@##@@@@@@           ",
"             @@##@@@@@@@@@@@@@@                 ",
"             @@##@@@@@@@@@@@@@@                 ",
"               @@====@@                         ",
"               @@====@@                         ",
"                 @@@@                           ",
"                 @@@@                           "};
