/* XPM */
static char * floor_xpm[] = {
"48 48 3 1",
" 	c #70C8A0",
".	c #40B088",
"+	c #88D8B8",
"                                                ",
"                                                ",
"                                                ",
"         ...                                    ",
"         ...                                    ",
"         ...                                    ",
"...      ...      ...                           ",
"...      ...      ...                           ",
"...      ...      ...                           ",
"   ...         ...                              ",
"   ...         ...                              ",
"   ...         ...                              ",
"                                                ",
"                                                ",
"                                                ",
"                                    +++         ",
"                                    +++         ",
"                                    +++         ",
"                           +++      +++      +++",
"                           +++      +++      +++",
"                           +++      +++      +++",
"                              +++         +++   ",
"                              +++         +++   ",
"                              +++         +++   ",
"                                                ",
"                                                ",
"                                                ",
"                                                ",
"                                                ",
"                                                ",
"                                                ",
"                                                ",
"                                                ",
"                                                ",
"                                                ",
"                                                ",
"                                                ",
"                                                ",
"                                                ",
"                                    ...         ",
"                                    ...         ",
"                                    ...         ",
"                           ...      ...      ...",
"                           ...      ...      ...",
"                           ...      ...      ...",
"                              ...         ...   ",
"                              ...         ...   ",
"                              ...         ...   "};
