/* XPM */
static char * wall_xpm[] = {
"48 48 8 1",
" 	c #DC00FF",
".	c #B89088",
"+	c #784848",
"@	c #E8D0C0",
"#	c #906868",
"$	c #D8C0A0",
"%	c #583840",
"&	c #787880",
"                  .........+++++++++            ",
"                  .........+++++++++            ",
"                  .........+++++++++            ",
"            +++...@@@@@@@@@...###...+++...      ",
"            +++...@@@@@@@@@...###...+++...      ",
"            +++...@@@@@@@@@...###...+++...      ",
"         ......@@@@@@@@@@@@...###@@@@@@$$$+++   ",
"         ......@@@@@@@@@@@@...###@@@@@@$$$+++   ",
"         ......@@@@@@@@@@@@...###@@@@@@$$$+++   ",
"      +++...@@@@@@@@@$$$...###@@@@@@$$$$$$+++   ",
"      +++...@@@@@@@@@$$$...###@@@@@@$$$$$$+++   ",
"      +++...@@@@@@@@@$$$...###@@@@@@$$$$$$+++   ",
"   ###...@@@@@@$$$@@@$$$$$$$$$@@@@@@$$$$$$...   ",
"   ###...@@@@@@$$$@@@$$$$$$$$$@@@@@@$$$$$$...   ",
"   ###...@@@@@@$$$@@@$$$$$$$$$@@@@@@$$$$$$...   ",
"   +++@@@@@@$$$$$$@@@$$$$$$$$$$$$$$$.........###",
"   +++@@@@@@$$$$$$@@@$$$$$$$$$$$$$$$.........###",
"   +++@@@@@@$$$$$$@@@$$$$$$$$$$$$$$$.........###",
"   +++$$$$$$$$$$$$$$$$$$$$$...$$$$$$$$$...$$$%%%",
"   +++$$$$$$$$$$$$$$$$$$$$$...$$$$$$$$$...$$$%%%",
"   +++$$$$$$$$$$$$$$$$$$$$$...$$$$$$$$$...$$$%%%",
"&&&+++$$$$$$$$$$$$$$$$$$$$$###...$$$...$$$...%%%",
"&&&+++$$$$$$$$$$$$$$$$$$$$$###...$$$...$$$...%%%",
"&&&+++$$$$$$$$$$$$$$$$$$$$$###...$$$...$$$...%%%",
"###+++$$$$$$$$$...###$$$$$$...###...$$$......%%%",
"###+++$$$$$$$$$...###$$$$$$...###...$$$......%%%",
"###+++$$$$$$$$$...###$$$$$$...###...$$$......%%%",
"%%%+++###$$$$$$###$$$......###%%%######%%%%%%%%%",
"%%%+++###$$$$$$###$$$......###%%%######%%%%%%%%%",
"%%%+++###$$$$$$###$$$......###%%%######%%%%%%%%%",
"%%%++++++#########......###+++%%%++++++%%%%%%%%%",
"%%%++++++#########......###+++%%%++++++%%%%%%%%%",
"%%%++++++#########......###+++%%%++++++%%%%%%%%%",
"%%%++++++...+++#########%%%+++%%%++++++%%%%%%%%%",
"%%%++++++...+++#########%%%+++%%%++++++%%%%%%%%%",
"%%%++++++...+++#########%%%+++%%%++++++%%%%%%%%%",
"&&&%%%%%%+++%%%++++++%%%%%%+++%%%+++%%%%%%%%%&&&",
"&&&%%%%%%+++%%%++++++%%%%%%+++%%%+++%%%%%%%%%&&&",
"&&&%%%%%%+++%%%++++++%%%%%%+++%%%+++%%%%%%%%%&&&",
"   &&&%%%%%%%%%++++++%%%%%%%%%+++%%%%%%%%%&&&&&&",
"   &&&%%%%%%%%%++++++%%%%%%%%%+++%%%%%%%%%&&&&&&",
"   &&&%%%%%%%%%++++++%%%%%%%%%+++%%%%%%%%%&&&&&&",
"      &&&&&&%%%%%%%%%%%%%%%&&&%%%%%%%%%&&&&&&   ",
"      &&&&&&%%%%%%%%%%%%%%%&&&%%%%%%%%%&&&&&&   ",
"      &&&&&&%%%%%%%%%%%%%%%&&&%%%%%%%%%&&&&&&   ",
"            &&&%%%%%%%%%###&&&&&&&&&&&&         ",
"            &&&%%%%%%%%%###&&&&&&&&&&&&         ",
"            &&&%%%%%%%%%###&&&&&&&&&&&&         "};
