/* XPM */
static char * player_r_xpm[] = {
"64 64 14 1",
" 	c #DC00FF",
".	c #3A4A7B",
"+	c #F8F8F8",
"@	c #DEE6EF",
"#	c #73CE73",
"$	c #10213A",
"%	c #000000",
"&	c #4A9452",
"*	c #7B4242",
"=	c #FFD6B5",
"-	c #DE9473",
";	c #FFC594",
">	c #C54242",
",	c #FF635A",
"                             ...                                ",
"                             ...                                ",
"                             ...                                ",
"                          ...+++...                             ",
"                          ...+++...                             ",
"                          ...+++...                             ",
"                          ...++++++............                 ",
"                          ...++++++............                 ",
"                          ...++++++............                 ",
"                    ......@@@@@@@@@@@@@@@++++++......           ",
"                    ......@@@@@@@@@@@@@@@++++++......           ",
"                    ......@@@@@@@@@@@@@@@++++++......           ",
"                 ...@@@@@@@@@@@@+++++++++++++++###......        ",
"                 ...@@@@@@@@@@@@+++++++++++++++###......        ",
"                 ...@@@@@@@@@@@@+++++++++++++++###......        ",
"              ...@@@@@@@@@@@@@@@@@@@@@@@@######++++++$$$        ",
"              ...@@@@@@@@@@@@@@@@@@@@@@@@######++++++$$$        ",
"              ...@@@@@@@@@@@@@@@@@@@@@@@@######++++++$$$        ",
"                 ...%%%@@@@@@&&&&&&###############+++&&&        ",
"                 ...%%%@@@@@@&&&&&&###############+++&&&        ",
"                 ...%%%@@@@@@&&&&&&###############+++&&&        ",
"                    %%%@@@$$$$$$&&&&&&&&&&&&&&&&&&&&&***        ",
"                    %%%@@@$$$$$$&&&&&&&&&&&&&&&&&&&&&***        ",
"                    %%%@@@$$$$$$&&&&&&&&&&&&&&&&&&&&&***        ",
"                    %%%$$$$$$$$$$$$$$$$$$=========---***        ",
"                    %%%$$$$$$$$$$$$$$$$$$=========---***        ",
"                    %%%$$$$$$$$$$$$$$$$$$=========---***        ",
"                    %%%$$$$$$$$$$$$%%%---===$$$======***        ",
"                    %%%$$$$$$$$$$$$%%%---===$$$======***        ",
"                    %%%$$$$$$$$$$$$%%%---===$$$======***        ",
"                       %%%%%%---;;;%%%---;;;$$$======***        ",
"                       %%%%%%---;;;%%%---;;;$$$======***        ",
"                       %%%%%%---;;;%%%---;;;$$$======***        ",
"                       %%%%%%---;;;%%%---;;;$$$======***        ",
"                       %%%***---;;;---------------***           ",
"                       %%%***---;;;---------------***           ",
"                       %%%***---;;;---------------***           ",
"                          %%%$$$------------******              ",
"                          %%%$$$------------******              ",
"                          %%%$$$------------******              ",
"                       %%%&&&&&&***************                 ",
"                       %%%&&&&&&***************                 ",
"                       %%%&&&&&&***************                 ",
"                    %%%###***&&&$$$%%%%%%$$$>>>***              ",
"                    %%%###***&&&$$$%%%%%%$$$>>>***              ",
"                    %%%###***&&&$$$%%%%%%$$$>>>***              ",
"                    %%%&&&&&&$$$%%%,,,,,,%%%$$$***              ",
"                    %%%&&&&&&$$$%%%,,,,,,%%%$$$***              ",
"                    %%%&&&&&&$$$%%%,,,,,,%%%$$$***              ",
"                       %%%&&&%%%%%%>>>>>>%%%$$$%%%              ",
"                       %%%&&&%%%%%%>>>>>>%%%$$$%%%              ",
"                       %%%&&&%%%%%%>>>>>>%%%$$$%%%              ",
"                          %%%%%%%%%%%%%%%%%%%%%                 ",
"                          %%%%%%%%%%%%%%%%%%%%%                 ",
"                          %%%%%%%%%%%%%%%%%%%%%                 ",
"                             %%%%%%%%%%%%%%%%%%                 ",
"                             %%%%%%%%%%%%%%%%%%                 ",
"                             %%%%%%%%%%%%%%%%%%                 ",
"                             %%%***&&&$$$$$$>>>%%%              ",
"                             %%%***&&&$$$$$$>>>%%%              ",
"                             %%%***&&&$$$$$$>>>%%%              ",
"                                %%%%%%%%%%%%%%%                 ",
"                                %%%%%%%%%%%%%%%                 ",
"                                %%%%%%%%%%%%%%%                 "};
