/* XPM */
static char * unlocked_xpm[] = {
"64 64 16 1",
" 	c #DC00FF",
".	c #50856D",
"+	c #294538",
"@	c #A8A853",
"#	c #E8E890",
"$	c #0C2419",
"%	c #C7C76F",
"&	c #C7C76E",
"*	c #788330",
"=	c #78832E",
"-	c #A8A855",
";	c #A8A850",
">	c #78832C",
",	c #788333",
"'	c #A8A851",
")	c #788238",
"                                                                ",
"                                                                ",
"                                                                ",
"                                                                ",
"                                                                ",
"                                                                ",
"                                                                ",
"                                                                ",
"                                                                ",
"                                                                ",
"                                                                ",
"                                                                ",
"                                                                ",
"                                                                ",
"                                                                ",
"                                                                ",
"                                                                ",
"                                                                ",
"                                                                ",
"                                                                ",
"                                                                ",
"                                                                ",
"                                                                ",
"                      ..+++++++++++++++...                      ",
"                      ..+++++++++++++++...                      ",
"                 ..+++++++++++++++++++++++++...                 ",
"                 ..+++++++++++++++++++++++++...                 ",
"                 ..+++++++++++++++++++++++++...                 ",
"              ...+++++@@###@@++++++++++++++++++..               ",
"              ...+++++@@###@@++++++++++++++++++..               ",
"            ..++++++++#######+++$$$$$$$++++++++++...            ",
"            ..++++++++#######+++$$$$$$$++++++++++...            ",
"            ..++++++++#######+++$$$$$$$++++++++++...            ",
"            +++++$$+++%%%%%%%###++$$$$$$$$$$++++++++            ",
"            +++++$$+++%%%%%%%###++$$$$$$$$$$++++++++            ",
"            ++$$$$$+++&&***++%%%##+++$$$$$$$$$$$$+++            ",
"            ++$$$$$+++&&***++%%%##+++$$$$$$$$$$$$+++            ",
"            ++$$$$$+++&&***++%%%##+++$$$$$$$$$$$$+++            ",
"            $$$$$$$+++&&===$$+++%%###++$$$$$$$$$$$$$            ",
"            $$$$$$$+++&&===$$+++%%###++$$$$$$$$$$$$$            ",
"            $$$$$$$***&&===$$$$$++%%%##***+++++$$$$$            ",
"            $$$$$$$***&&===$$$$$++%%%##***+++++$$$$$            ",
"            $$$$$$$***&&===$$$$$++%%%##***+++++$$$$$            ",
"            ++$$$++&&&&&+++$$$$$$$+++&&+++#####**$$$            ",
"            ++$$$++&&&&&+++$$$$$$$+++&&+++#####**$$$            ",
"            ..$$$++&&&**+++--$$$$$$$$+++++##%%%;;$$$            ",
"            ..$$$++&&&**+++--$$$$$$$$+++++##%%%;;$$$            ",
"            ..$$$++&&&**+++--$$$$$$$$+++++##%%%;;$$$            ",
"            ..+++++===>>+++==---$$$$$++***&&,,,++...            ",
"            ..+++++===>>+++==---$$$$$++***&&,,,++...            ",
"              ...++>>>>>+++$$===@@$$$++&&&'')))++...            ",
"              ...++>>>>>+++$$===@@$$$++&&&'')))++...            ",
"              ...++>>>>>+++$$===@@$$$++&&&'')))++...            ",
"                 ..$$$>>$$$$$$$$==---$$;;;;;+++..               ",
"                 ..$$$>>$$$$$$$$==---$$;;;;;+++..               ",
"                   ...$$$$$$$$$$$$$$$$$$$$$$...                 ",
"                   ...$$$$$$$$$$$$$$$$$$$$$$...                 ",
"                   ...$$$$$$$$$$$$$$$$$$$$$$...                 ",
"                                                                ",
"                                                                ",
"                                                                ",
"                                                                ",
"                                                                ",
"                                                                "};
