/* XPM */
static char * coin_xpm[] = {
"64 64 8 1",
" 	c #DC00FF",
".	c #404040",
"+	c #A80000",
"@	c #D02828",
"#	c #F89878",
"$	c #800000",
"%	c #F8F8F8",
"&	c #909090",
"                                                                ",
"                                                                ",
"                                                                ",
"                                                                ",
"                                                                ",
"                                                                ",
"                                                                ",
"                                                                ",
"                                                                ",
"                                                                ",
"                                                                ",
"                                                                ",
"                                                                ",
"                                                                ",
"                                                                ",
"                                                                ",
"                                                                ",
"                                                                ",
"                                                                ",
"                                                                ",
"                                                                ",
"                                                                ",
"                                                                ",
"                                                                ",
"                                                                ",
"                                                                ",
"                                                                ",
"                                                                ",
"                                                                ",
"                                                                ",
"                                                                ",
"                                                                ",
"                            ........                            ",
"                            ........                            ",
"                        ....++++++++....                        ",
"                        ....++++++++....                        ",
"                      ..++@@##@@@@++++$$..                      ",
"                      ..++@@##@@@@++++$$..                      ",
"                      ..@@##%%##@@@@++++..                      ",
"                      ..@@##%%##@@@@++++..                      ",
"                    ..++@@@@##@@@@@@++++$$..                    ",
"                    ..++@@@@##@@@@@@++++$$..                    ",
"                    ..@@@@@@@@....++++++$$..                    ",
"                    ..@@@@@@@@....++++++$$..                    ",
"                    ....@@@@..%%&&..++$$....                    ",
"                    ....@@@@..%%&&..++$$....                    ",
"                    ..%%......&&&&......&&..                    ",
"                    ..%%......&&&&......&&..                    ",
"                      ..%%%%%%....&&&&&&..                      ",
"                      ..%%%%%%....&&&&&&..                      ",
"                      ..&&%%%%%%&&&&&&&&..                      ",
"                      ..&&%%%%%%&&&&&&&&..                      ",
"                        ....&&&&&&&&....                        ",
"                        ....&&&&&&&&....                        ",
"                            ........                            ",
"                            ........                            ",
"                                                                ",
"                                                                ",
"                                                                ",
"                                                                ",
"                                                                ",
"                                                                ",
"                                                                ",
"                                                                "};
