/* XPM */
static char * collectible_xpm[] = {
"64 64 10 1",
" 	c #70C8A0",
".	c #40B088",
"+	c #404040",
"@	c #88D8B8",
"#	c #A80000",
"$	c #D02828",
"%	c #F89878",
"&	c #800000",
"*	c #F8F8F8",
"=	c #909090",
"                                                                ",
"                                                                ",
"                                                                ",
"                                                                ",
"            ....                                                ",
"            ....                                                ",
"            ....                                                ",
"            ....                                                ",
"....        ....        ....                                    ",
"....        ....        ....                                    ",
"....        ....        ....                                    ",
"....        ....        ....                                    ",
"    ....            ....                                        ",
"    ....            ....                                        ",
"    ....            ....                                        ",
"    ....            ....                                        ",
"                                                                ",
"                                                                ",
"                                                                ",
"                                                                ",
"                            ++++++++            @@@@            ",
"                            ++++++++            @@@@            ",
"                        ++++########++++        @@@@            ",
"                        ++++########++++        @@@@            ",
"                      ++##$$%%$$$$####&&++      @@@@        @@@@",
"                      ++##$$%%$$$$####&&++      @@@@        @@@@",
"                      ++$$%%**%%$$$$####++      @@@@        @@@@",
"                      ++$$%%**%%$$$$####++      @@@@        @@@@",
"                    ++##$$$$%%$$$$$$####&&++            @@@@    ",
"                    ++##$$$$%%$$$$$$####&&++            @@@@    ",
"                    ++$$$$$$$$++++######&&++            @@@@    ",
"                    ++$$$$$$$$++++######&&++            @@@@    ",
"                    ++++$$$$++**==++##&&++++                    ",
"                    ++++$$$$++**==++##&&++++                    ",
"                    ++**++++++====++++++==++                    ",
"                    ++**++++++====++++++==++                    ",
"                      ++******++++======++                      ",
"                      ++******++++======++                      ",
"                      ++==******========++                      ",
"                      ++==******========++                      ",
"                        ++++========++++                        ",
"                        ++++========++++                        ",
"                            ++++++++                            ",
"                            ++++++++                            ",
"                                                                ",
"                                                                ",
"                                                                ",
"                                                                ",
"                                                                ",
"                                                                ",
"                                                                ",
"                                                                ",
"                                                ....            ",
"                                                ....            ",
"                                                ....            ",
"                                                ....            ",
"                                    ....        ....        ....",
"                                    ....        ....        ....",
"                                    ....        ....        ....",
"                                    ....        ....        ....",
"                                        ....            ....    ",
"                                        ....            ....    ",
"                                        ....            ....    ",
"                                        ....            ....    "};
