/* XPM */
static char * floor_xpm[] = {
"64 64 3 1",
" 	c #70C8A0",
".	c #40B088",
"+	c #88D8B8",
"                                                                ",
"                                                                ",
"                                                                ",
"                                                                ",
"            ....                                                ",
"            ....                                                ",
"            ....                                                ",
"            ....                                                ",
"....        ....        ....                                    ",
"....        ....        ....                                    ",
"....        ....        ....                                    ",
"....        ....        ....                                    ",
"    ....            ....                                        ",
"    ....            ....                                        ",
"    ....            ....                                        ",
"    ....            ....                                        ",
"                                                                ",
"                                                                ",
"                                                                ",
"                                                                ",
"                                                ++++            ",
"                                                ++++            ",
"                                                ++++            ",
"                                                ++++            ",
"                                    ++++        ++++        ++++",
"                                    ++++        ++++        ++++",
"                                    ++++        ++++        ++++",
"                                    ++++        ++++        ++++",
"                                        ++++            ++++    ",
"                                        ++++            ++++    ",
"                                        ++++            ++++    ",
"                                        ++++            ++++    ",
"                                                                ",
"                                                                ",
"                                                                ",
"                                                                ",
"                                                                ",
"                                                                ",
"                                                                ",
"                                                                ",
"                                                                ",
"                                                                ",
"                                                                ",
"                                                                ",
"                                                                ",
"                                                                ",
"                                                                ",
"                                                                ",
"                                                                ",
"                                                                ",
"                                                                ",
"                                                                ",
"                                                ....            ",
"                                                ....            ",
"                                                ....            ",
"                                                ....            ",
"                                    ....        ....        ....",
"                                    ....        ....        ....",
"                                    ....        ....        ....",
"                                    ....        ....        ....",
"                                        ....            ....    ",
"                                        ....            ....    ",
"                                        ....            ....    ",
"                                        ....            ....    "};
