/* XPM */
static char * locked_xpm[] = {
"64 64 7 1",
" 	c #70C8A0",
".	c #40B088",
"+	c #383818",
"@	c #88D8B8",
"#	c #C8A860",
"$	c #787040",
"%	c #000000",
"                                                                ",
"                                                                ",
"                                                                ",
"                                                                ",
"            ....                                                ",
"            ....                                                ",
"            ....                                                ",
"            ....                                                ",
"....        ....        ....                                    ",
"....        ....        ....                                    ",
"....        ....        ....                                    ",
"....        ....        ....                                    ",
"    ....            ....                                        ",
"    ....            ....                                        ",
"    ....            ....                                        ",
"    ....            ....                                        ",
"                                                                ",
"                                                                ",
"                          +++++++++                             ",
"                          +++++++++                             ",
"                          +++++++++             @@@@            ",
"                    +++++++++######++++++       @@@@            ",
"                    +++++++++######++++++       @@@@            ",
"                    +++++++++######++++++       @@@@            ",
"                 +++++++++############$$$+++    @@@@        @@@@",
"                 +++++++++############$$$+++    @@@@        @@@@",
"                 +++++++++############$$$+++    @@@@        @@@@",
"              +++$$$###+++#########$$$$$$+++%%% @@@@        @@@@",
"              +++$$$###+++#########$$$$$$+++%%%         @@@@    ",
"              +++$$$###+++#########$$$$$$+++%%%         @@@@    ",
"              ++++++######$$$###$$$###+++%%%$$$%%%      @@@@    ",
"              ++++++######$$$###$$$###+++%%%$$$%%%      @@@@    ",
"              ++++++######$$$###$$$###+++%%%$$$%%%              ",
"           +++$$$%%%$$$######++++++%%%%%%++++++%%%              ",
"           +++$$$%%%$$$######++++++%%%%%%++++++%%%              ",
"           +++$$$%%%$$$######++++++%%%%%%++++++%%%              ",
"           %%%+++%%%+++$$$###$$$###$$$+++$$$$$$+++%%%           ",
"           %%%+++%%%+++$$$###$$$###$$$+++$$$$$$+++%%%           ",
"           %%%+++%%%+++$$$###$$$###$$$+++$$$$$$+++%%%           ",
"           %%%$$$###++++++$$$###$$$%%%$$$$$$$$$%%%%%%           ",
"           %%%$$$###++++++$$$###$$$%%%$$$$$$$$$%%%%%%           ",
"           %%%$$$###++++++$$$###$$$%%%$$$$$$$$$%%%%%%           ",
"           %%%+++$$$###+++###$$$+++%%%+++$$$%%%+++%%%           ",
"           %%%+++$$$###+++###$$$+++%%%+++$$$%%%+++%%%           ",
"           %%%+++$$$###+++###$$$+++%%%+++$$$%%%+++%%%           ",
"           %%%+++++++++%%%++++++$$$$$$%%%+++++++++%%%           ",
"           %%%+++++++++%%%++++++$$$$$$%%%+++++++++%%%           ",
"           %%%+++++++++%%%++++++$$$$$$%%%+++++++++%%%           ",
"           %%%++++++%%%%%%+++$$$++++++%%%%%%++++++%%%           ",
"           %%%++++++%%%%%%+++$$$++++++%%%%%%++++++%%%           ",
"           %%%++++++%%%%%%+++$$$++++++%%%%%%++++++%%%           ",
"              %%%+++%%%%%%++++++++++++%%%%%%%%%%%%              ",
"              %%%+++%%%%%%++++++++++++%%%%%%%%%%%%..            ",
"              %%%+++%%%%%%++++++++++++%%%%%%%%%%%%..            ",
"                 %%%%%%%%%%%%++++++%%%%%%%%%    ....            ",
"                 %%%%%%%%%%%%++++++%%%%%%%%%    ....            ",
"                 %%%%%%%%%%%%++++++%%%%%%%%%    ....        ....",
"                          %%%%%%%%%%%%..        ....        ....",
"                          %%%%%%%%%%%%..        ....        ....",
"                          %%%%%%%%%%%%..        ....        ....",
"                                        ....            ....    ",
"                                        ....            ....    ",
"                                        ....            ....    ",
"                                        ....            ....    "};
