/* XPM */
static char * player_u_xpm[] = {
"64 64 15 1",
" 	c #70C8A0",
".	c #3A4A7B",
"+	c #F8F8F8",
"@	c #40B088",
"#	c #DEE6EF",
"$	c #000000",
"%	c #88D8B8",
"&	c #10213A",
"*	c #7B4242",
"=	c #DE9473",
"-	c #FFC594",
";	c #C54242",
">	c #FF635A",
",	c #4A9452",
"'	c #73CE73",
"                       ...                                      ",
"                       ...                                      ",
"                       ...                                      ",
"                    ...+++...                                   ",
"            @@@@    ...+++...                                   ",
"            @@@@    ...+++...                                   ",
"            @@@@ ......++++++............                       ",
"            @@@@ ......++++++............                       ",
"@@@@        @@@@ ......++++++............                       ",
"@@@@        @@...##################++++++...                    ",
"@@@@        @@...##################++++++...                    ",
"@@@@        @@...##################++++++...                    ",
"    @@@@         ...###+++++++++++++++++++++...                 ",
"    @@@@         ...###+++++++++++++++++++++...                 ",
"    @@@@         ...###+++++++++++++++++++++...                 ",
"    @@@@      ...############++++++###++++++###...              ",
"              ...############++++++###++++++###...              ",
"              ...############++++++###++++++###...              ",
"              $$$##############################$$$              ",
"              $$$##############################$$$              ",
"              $$$##############################$$$%%            ",
"              $$$&&&########################&&&$$$%%            ",
"              $$$&&&########################&&&$$$%%            ",
"              $$$&&&########################&&&$$$%%            ",
"           ***===$$$###&&&############&&&###$$$===***       %%%%",
"           ***===$$$###&&&############&&&###$$$===***       %%%%",
"           ***===$$$###&&&############&&&###$$$===***       %%%%",
"           ***===***&&&&&&&&&######&&&&&&&&&***===***       %%%%",
"           ***===***&&&&&&&&&######&&&&&&&&&***===***   %%%%    ",
"           ***===***&&&&&&&&&######&&&&&&&&&***===***   %%%%    ",
"              ***======$$$$$$$$$$$$$$$$$$======***      %%%%    ",
"              ***======$$$$$$$$$$$$$$$$$$======***      %%%%    ",
"              ***======$$$$$$$$$$$$$$$$$$======***              ",
"              ***======$$$$$$$$$$$$$$$$$$======***              ",
"                 ***======------------======***                 ",
"                 ***======------------======***                 ",
"                 ***======------------======***                 ",
"                 $$$$$$;;;************;;;$$$$$$                 ",
"                 $$$$$$;;;************;;;$$$$$$                 ",
"                 $$$$$$;;;************;;;$$$$$$                 ",
"              $$$===&&&&&&$$$$$$$$$$$$&&&&&&===$$$              ",
"              $$$===&&&&&&$$$$$$$$$$$$&&&&&&===$$$              ",
"              $$$===&&&&&&$$$$$$$$$$$$&&&&&&===$$$              ",
"           ***>>>***$$$$$$,,,++++++,,,$$$$$$***>>>***           ",
"           ***>>>***$$$$$$,,,++++++,,,$$$$$$***>>>***           ",
"           ***>>>***$$$$$$,,,++++++,,,$$$$$$***>>>***           ",
"           ***;;;;;;$$$***''''''''''''***$$$;;;;;;&&&           ",
"           ***;;;;;;$$$***''''''''''''***$$$;;;;;;&&&           ",
"           ***;;;;;;$$$***''''''''''''***$$$;;;;;;&&&           ",
"              $$$$$$$$$******************$$$$$$&&&              ",
"              $$$$$$$$$******************$$$$$$&&&              ",
"              $$$$$$$$$******************$$$$$$&&&              ",
"                 $$$$$$$$$,,,,,,,,,,,,$$$$$$$$$ @@@@            ",
"                 $$$$$$$$$,,,,,,,,,,,,$$$$$$$$$ @@@@            ",
"                 $$$$$$$$$,,,,,,,,,,,,$$$$$$$$$ @@@@            ",
"                 $$$***$$$$$$$$$$$$$$$$$$***$$$ @@@@            ",
"                 $$$***$$$$$$$$$$$$$$$$$$***$$$ @@@@        @@@@",
"                 $$$***$$$$$$$$$$$$$$$$$$***$$$ @@@@        @@@@",
"                 $$$*********$$$$$$*********$$$ @@@@        @@@@",
"                 $$$*********$$$$$$*********$$$ @@@@        @@@@",
"                 $$$*********$$$$$$*********$$$         @@@@    ",
"                    $$$$$$$$$      $$$$$$$$$            @@@@    ",
"                    $$$$$$$$$      $$$$$$$$$            @@@@    ",
"                    $$$$$$$$$      $$$$$$$$$            @@@@    "};
